<?xml version="1.0" encoding="UTF-8"?>
<svg id="Layer_2" data-name="Layer 2" xmlns="http://www.w3.org/2000/svg" viewBox="0 0 731.52 329.88">

    <style>
        @keyframes dash1{
        from {
        stroke-dashoffset: 1585;
        }
        to {
        stroke-dashoffset: 0;
        }
        }

        @keyframes dash2{
        from {
        stroke-dashoffset: 1635;
        }
        to {
        stroke-dashoffset: 0;
        }
        }

        .line1, .line2 {
        stroke-dasharray: 1582;
        stroke-dashoffset: 0;
        animation: dash1 2s linear forwards;
        }

        .line3{
        stroke-dasharray: 1643;
        stroke-dashoffset: 1653;
        animation: dash2 2s linear forwards;
        animation-delay: 2s;
        }


    </style>

    <path class="line1"
          d="m1.49,183.19c5.14-42.6,29.04-82.59,64.12-107.29,35.08-24.7,80.79-33.73,122.62-24.22,16.17,3.68,32.29,10.37,43.41,22.67,10.58,11.71,15.72,27.64,16.41,43.41s-2.78,31.46-7.69,46.46c-25.63,78.35-93.57,141.4-173.61,161.11-18.98,4.67-42.34,5.66-54.58-9.57-11.49-14.29-7.02-35.39.04-52.31,26.8-64.25,84.32-114.86,151.46-133.27,15.9-4.36,32.9-6.98,48.8-2.61s30.37,17.17,32.43,33.53c1.23,9.78-.66,22.37,8.02,27.03,6.68,3.59,15.39-1.25,18.67-8.09s2.66-14.83,1.97-22.39c1.91,5.22,6.64,9.31,12.07,10.46.96-1.92,1.92-3.85,2.87-5.77,3.43,3.8,9.45,4.98,14.06,2.74s7.42-7.69,6.56-12.74c-1.57,3.13.96,7.47,4.45,7.66s6.46-3.88,5.22-7.15c-1.94,2.48.99,6.32,4.13,6.39s5.82-2.16,8.09-4.32c26.31-25.05,42.65-60.3,44.76-96.57-21.16,44.41-38.39,90.68-51.41,138.12.11-7.06.23-14.12.34-21.17,21.28-7.02,42.55-14.03,63.83-21.05"
          fill="none" stroke="#000" stroke-miterlimit="10" stroke-width="3"/>
    <path class="line2" d="m171.11,109.47c-2.54,23.03-8.03,45.73-16.28,67.38" fill="none" stroke="#000"
          stroke-miterlimit="10" stroke-width="3"/>
    <path class="line3"
          d="m508.64,14.56c3.18-5.49-2-13.61-8.32-13.03-26.24,84.86-52.48,169.72-78.71,254.58-2.91,9.41-5.93,19.05-11.96,26.84-6.02,7.79-15.78,13.48-25.5,11.89-8.25-1.35-15.03-7.71-18.78-15.18-3.75-7.47-4.88-15.97-5.43-24.31-3.5-53.48,16.06-108.07,52.71-147.16,12.1-12.9,26.52-24.46,43.62-28.98s37.26-.65,48.54,12.98c8.83,10.67,11.03,25.72,8.38,39.31s-9.67,25.94-17.64,37.26c-5.28,7.5-11.18,14.8-18.87,19.81s-17.5,7.45-26.22,4.6c-13.08-4.27-20.18-19.73-18.17-33.34,2.02-13.61,11.28-25.19,22.15-33.63,9.12-7.09,19.85-12.54,31.35-13.63,11.5-1.09,23.78,2.67,31.33,11.41,7.54,8.74,9.19,22.67,2.4,32.01,6.37-6.58,12.75-13.17,19.12-19.75,1.1,3.97,2.24,8.02,4.54,11.44s6,6.17,10.12,6.24,8.33-3.26,8.26-7.38-5.56-7.31-8.75-4.69c4.84,5.55,13.45,7.4,20.14,4.34s10.92-10.79,9.88-18.07c-4.53-.08-6.61,6.77-3.55,10.11s8.67,3.06,12.49.62,6.26-6.48,8.57-10.38c-3.94,2.64-.48,9.62,4.25,10.01s8.82-3.09,12.15-6.48c13.45-13.68,24.61-29.6,32.9-46.9,2.33-4.87,3.62-12.21-1.33-14.37-5-2.18-9.48,3.86-11.64,8.87-20.38,47.37-40.76,94.74-61.14,142.12,1.11-18.68,2.22-37.36,3.33-56.04,26.2,5.37,52.71-5.47,77.26-16.07,24.94-10.77,49.88-21.54,74.81-32.31"
          fill="none" stroke="#000" stroke-miterlimit="10" stroke-width="3"/>
</svg>