<?xml version="1.0" encoding="UTF-8"?>
<svg id="Layer_3" data-name="Layer 3" xmlns="http://www.w3.org/2000/svg" viewBox="0 0 1630.34 1313.16">

  <style>
    @keyframes dash1{
    from {
    stroke-dashoffset: 1967;
    }
    to {
    stroke-dashoffset: 0;
    }
    }

    @keyframes dash2{
    from {
    stroke-dashoffset: 6988;
    }
    to {
    stroke-dashoffset: 0;
    }
    }


    .line1 {
    stroke-dasharray: 1967;
    stroke-dashoffset: 0;
    animation: dash1 2s linear forwards;
    }

    .line2{
    stroke-dasharray: 6988;
    stroke-dashoffset: 6988;
    animation: dash2 2s linear forwards;
    animation-delay: 2s;
    }


  </style>

  <path class="line1" d="m2,707.69c10.14,203.41,37.07,405.98,80.45,604.96-24.65-92.98-41.35-188.07-49.85-283.88-6.39-72.02-8.15-144.49-4.11-216.67,4.09-73.17,15.64-149.76,60.21-207.94,17.86-23.31,41.09-43.15,68.6-53.39,27.52-10.25,59.54-10.11,85.34,3.91,47.64,25.88,61.06,91.55,44.37,143.14-16.69,51.59-55.83,92.28-93.77,131.02-15.43,15.75-32.84,32.48-54.81,34.29s-45.7-21.53-35.36-41.01" fill="none" stroke="#05299b" stroke-miterlimit="10" stroke-width="4"/>
  <path class="line2" d="m644.05,338.04c-59.13-14.28-112.91,30.5-151.93,77.16-97.72,116.86-166.61,494.64-100.64,722.92,7.83,27.08,22.41,54.48,48.48,65.21,29.45,12.13,64.48.76,88.36-20.31,23.88-21.07,38.79-50.29,52.25-79.16,118.21-253.59,167.1-539.09,139.99-817.57-3.09-31.79-8.02-65.52-28.87-89.71-30.76-35.71-84.92-30.2-130.14-16.94-156.04,45.76-225.04,189.44-231.6,374.65-3.49,98.59,92.54,201.55,186,233.14,70.92,23.97,152.07,2.96,211.32-42.8,59.25-45.75,98.56-113.36,122.89-184.15,3.2,24.98-5.94,49.67-14.21,73.46-8.27,23.78-15.89,49.39-9.67,73.79,6.22,24.4,31.75,45.57,55.73,37.9,19.5-6.24,29.91-28.94,28.37-49.35-1.54-20.42-12.3-38.88-23.56-55.98-6.7,22.71.26,48.89,17.35,65.28,25.93,4.04,53.66-10.74,64.77-34.52,11.11-23.78,4.64-54.53-15.09-71.82-7.86,19.54,16.48,42.78,35.64,34.02,19.15-8.76,17.51-42.37-2.41-49.21,16.01,12.31,41.93,8.53,53.76-7.85,11.83-16.38,7.26-42.17-9.46-53.5,3.35,8.19,15,9.97,22.8,5.79s12.56-12.27,16.83-20.01c76.42-138.32,126.09-265.48,139.68-422.92,1.17-13.53-.71-55.19-6.86-67.3s-21.78-20.47-33.74-14.02c-11.86,6.39-23.96,34.34-24.33,47.8-7.44,271.57-4.59,531.15-12.03,802.71,2.36-29.09,4.68-58.73-1.84-87.18-6.51-28.45-23.38-56.05-49.94-68.16-26.56-12.11-62.89-3.84-76.08,22.19-14.42,28.45,5.17,65.77,34.79,77.6s64.21,2.8,90.74-14.9c26.53-17.7,46.8-43.08,67.48-67.35,117.17-137.48,359.96-351.55,422.39-333.94,26.11,7.36-27.44,46.8-41.16,70.2" fill="none" stroke="#05299b" stroke-miterlimit="10" stroke-width="4"/>
</svg>