<?xml version="1.0" encoding="UTF-8" standalone="no"?>
<!DOCTYPE svg PUBLIC "-//W3C//DTD SVG 1.1//EN" "http://www.w3.org/Graphics/SVG/1.1/DTD/svg11.dtd">
<svg width="100%" height="100%" viewBox="0 0 180 256" version="1.1" xmlns="http://www.w3.org/2000/svg" xmlns:xlink="http://www.w3.org/1999/xlink" xml:space="preserve" xmlns:serif="http://www.serif.com/" style="fill-rule:evenodd;clip-rule:evenodd;stroke-linejoin:round;stroke-miterlimit:2;">
    <g id="Artboard1" transform="matrix(0.952574,0,0,0.882901,10.8257,12.3551)">
        <rect x="-11.365" y="-13.994" width="188.529" height="289.776" style="fill:none;"/>
        <g transform="matrix(4.37411,0,0,4.71929,126.346,-1.06975)">
            <path d="M0,-0.418C-0.373,-0.807 -1.207,-0.815 -1.758,-0.928C-6.269,-1.456 -10.837,-1.19 -15.368,-1.168C-20.363,-0.966 -25.524,-1.342 -30.411,-0.228C-30.456,-0.229 -30.397,-0.159 -30.359,-0.418C-30.399,-0.676 -30.459,-0.604 -30.414,-0.604C-25.551,0.638 -20.367,0.402 -15.368,0.601C-10.831,0.644 -6.257,0.751 -1.751,0.132C-1.196,0.007 -0.364,-0.018 0,-0.418M0.108,-0.418C-0.95,1.29 -31.466,2.066 -31.219,-0.418C-31.161,-0.847 -30.95,-0.881 -30.864,-0.966C-28.436,-1.887 -25.744,-1.804 -23.192,-2.061C-16.028,-2.484 -8.823,-2.196 -1.728,-1.115C-1.161,-0.952 -0.192,-0.962 0.108,-0.418" style="fill:rgb(192,187,182);fill-rule:nonzero;"/>
        </g>
        <g transform="matrix(4.37411,0,0,4.71929,126.781,120.945)">
            <path d="M0,-26.244L-15.862,-0.028C-16.057,0.318 -16.624,0.191 -16.653,-0.202C-16.749,-1.387 -17.151,-2.578 -17.624,-3.728C-21.027,-11.794 -26.755,-19.041 -31.206,-26.305C-27.881,-22.487 -24.873,-18.41 -22.056,-14.194C-19.423,-9.832 -16.321,-5.541 -15.797,-0.27C-15.796,-0.268 -16.592,-0.483 -16.592,-0.483C-16.52,-0.458 -0.126,-26.562 0,-26.244" style="fill:rgb(192,187,182);fill-rule:nonzero;"/>
        </g>
        <g transform="matrix(4.37411,0,0,4.71929,55.159,115.964)">
            <path d="M0,28.239C0.431,23.57 0.314,18.851 0.192,14.156C0.087,10.094 0.136,4.089 -0.363,0.15L0.625,-0.046C0.945,2.406 0.951,4.708 1.039,7.082C1.268,14.156 1.02,21.231 0.448,28.285L0,28.239" style="fill:rgb(192,187,182);fill-rule:nonzero;"/>
        </g>
        <g transform="matrix(4.37411,0,0,4.71929,105.758,250.982)">
            <path d="M0,-0.59C-0.829,5.16 -13.49,5.409 -17.813,3.923C-21.708,2.962 -25.314,-0.769 -20.858,-3.77C-17.961,-5.575 -14.458,-5.999 -11.143,-5.964C-7.641,-5.824 -0.539,-4.884 0,-0.59L-0.142,-0.59C-0.392,-2.815 -2.942,-3.739 -4.808,-4.328C-9.795,-5.6 -15.708,-5.501 -20.182,-2.785C-22.042,-1.58 -22.083,0.218 -20.185,1.403C-14.973,4.425 -7.294,4.617 -1.915,1.856C-1.036,1.314 -0.191,0.492 -0.142,-0.59L0,-0.59Z" style="fill:rgb(192,187,182);fill-rule:nonzero;"/>
        </g>
        <g transform="matrix(4.37411,0,0,4.71929,115.888,247.474)">
            <path d="M0,-28.092C-0.004,-23.062 0.236,-15.744 0.314,-10.636C0.271,-8.212 0.331,-5.596 0.407,-3.251C0.493,-2.821 0.91,-2.423 1.408,-2.154C3.627,-0.721 13.287,-0.36 13.047,-4.182C13.063,-12.142 12.85,-20.173 13.259,-28.169C13.574,-22.645 13.213,-16.453 13.579,-10.722C13.577,-9.472 13.653,-6.326 13.663,-5.116C13.633,-4.488 13.765,-3.835 13.622,-3.169C12.04,0.077 5.9,-0.107 2.862,-0.782C1.591,-1.162 0.072,-1.597 -0.348,-3.104C-0.431,-5.695 -0.394,-8.201 -0.314,-10.636C-0.211,-15.763 -0.021,-23.032 0,-28.092" style="fill:rgb(192,187,182);fill-rule:nonzero;"/>
        </g>
        <g transform="matrix(4.37411,0,0,4.71929,174.332,196.766)">
            <path d="M0,0.033C-0.729,3.939 -9.914,3.957 -12.54,1.973C-14.118,1.002 -14.111,-0.799 -12.524,-1.762C-9.861,-3.694 -0.822,-3.924 0,0.033C-1.348,-3.506 -9.422,-3.132 -12.12,-1.186C-15.279,1.495 -8.558,2.771 -6.696,2.679C-4.428,2.657 -0.824,2.429 0,0.033" style="fill:rgb(192,187,182);fill-rule:nonzero;"/>
        </g>
        <g transform="matrix(4.37411,0,0,4.71929,174.332,114.384)">
            <path d="M0,0.033C-0.729,3.939 -9.914,3.957 -12.54,1.973C-14.118,1.002 -14.111,-0.799 -12.524,-1.762C-9.861,-3.694 -0.822,-3.924 0,0.033C-1.348,-3.506 -9.422,-3.132 -12.12,-1.186C-15.279,1.495 -8.558,2.771 -6.696,2.679C-4.428,2.657 -0.824,2.429 0,0.033" style="fill:rgb(192,187,182);fill-rule:nonzero;"/>
        </g>
    </g>
</svg>
